<?xml version="1.0" encoding="UTF-8"?>
<svg id="Capa_2" data-name="Capa 2" xmlns="http://www.w3.org/2000/svg" viewBox="0 0 786.4 1063.8">
  <defs>
    <style>
      .cls-1 {
        fill: #da0094;
      }

      .cls-2 {
        fill: #d8faff;
      }

      .cls-3 {
        fill: #ff8cc6;
      }

      .cls-4 {
        fill: #a3ffff;
      }

      .cls-5 {
        fill: #a4006a;
      }

      .cls-6 {
        fill: #750070;
      }

      .cls-7 {
        fill: #726300;
      }

      .cls-8 {
        fill: #c63e7d;
      }

      .cls-9 {
        fill: #008e9e;
      }

      .cls-10 {
        fill: #bb42ae;
      }

      .cls-11 {
        fill: #75cdc5;
      }

      .cls-12 {
        fill: #7700c1;
      }

      .cls-13 {
        fill: #372a00;
      }

      .cls-14 {
        fill: none;
        stroke: #c70005;
        stroke-miterlimit: 10;
      }

      .cls-15 {
        fill: #e7fff7;
      }

      .cls-16 {
        fill: #ad6bd2;
      }

      .cls-17 {
        fill: #72edff;
      }

      .cls-18 {
        fill: #ffe8de;
      }

      .cls-19 {
        fill: #a90c51;
      }

      .cls-20 {
        fill: #ecc4ff;
      }
    </style>
  </defs>
  <g id="Capa_2-2" data-name="Capa 2">
    <polygon class="cls-14" points="368.1 543.3 362.5 571.9 352.8 545.5 368.1 543.3"/>
    <polygon class="cls-14" points="352.8 545.5 322.5 556.5 324.4 530.4 352.8 545.5"/>
    <polygon class="cls-20" points="322.5 556.5 307.6 582.8 321.9 578.2 348.2 587.7 381.3 586.8 408.9 616.7 418.6 597.1 399.1 545.1 376.8 545 362.5 571.9 352.8 545.5 322.5 556.5"/>
    <polygon class="cls-1" points="362.5 571.9 372.1 577 376.8 545 362.5 571.9"/>
    <polygon class="cls-20" points="368.1 543.3 376.8 545 362.5 571.9 368.1 543.3"/>
    <polygon class="cls-14" points="368.1 543.3 399.8 525.4 383.4 511.8 368.1 543.3"/>
    <polygon class="cls-14" points="399.8 525.4 414.7 528.4 413.4 535 396.8 540.6 385 533.8 399.8 525.4"/>
    <polygon class="cls-3" points="399.1 545.1 396.8 540.6 385 533.8 368.1 543.3 376.8 545 399.1 545.1"/>
    <polygon class="cls-1" points="413.4 535 427.8 536.4 435.1 525.6 434.6 506.2 419.4 484.1 407.5 509.5 383.4 511.8 399.8 525.4 414.7 528.4 413.4 535"/>
    <polygon class="cls-19" points="408.9 616.7 425 622.4 418.6 597.1 408.9 616.7"/>
    <polygon class="cls-3" points="413.4 535 453.4 573.6 459.3 621 425 622.4 418.6 597.1 399.1 545.1 396.8 540.6 413.4 535"/>
    <polygon class="cls-14" points="434.8 633.3 443.7 645.7 449.9 621.4 434.8 633.3"/>
    <polygon class="cls-14" points="383.4 511.8 404.3 496.9 407.5 509.5 383.4 511.8"/>
    <polygon class="cls-20" points="404.3 496.9 405.3 462 364.6 459.6 363.3 398.7 407.6 365 404.5 405.2 421.4 441.2 419.4 484.1 407.5 509.5 383.4 511.8 404.3 496.9"/>
    <polygon class="cls-19" points="368.1 543.3 356.5 539.5 352.8 545.5 368.1 543.3"/>
    <polygon class="cls-5" points="324.4 530.4 300.3 523.4 289.2 503.5 296.3 487.8 272.8 507.2 266.6 543 298.3 555.8 299.3 573.5 322.5 556.5 324.4 530.4"/>
    <polygon class="cls-8" points="356.5 539.5 346.4 534.7 336.4 520.8 324.4 530.4 352.8 545.5 356.5 539.5"/>
    <polygon class="cls-19" points="336.4 520.8 321.6 512 304.7 514.5 300.3 523.4 324.4 530.4 336.4 520.8"/>
    <path class="cls-1" d="M346.4,534.7l26.9-2.1-5.2,10.7c-3.9-1.2-7.8-2.5-11.6-3.7-3.4-1.6-6.7-3.2-10.1-4.8Z"/>
    <polygon class="cls-19" points="346.4 534.7 348.8 526.6 359.9 533.7 346.4 534.7"/>
    <polygon class="cls-5" points="374.4 530.4 353 518.2 339.5 505.5 321.6 512 336.4 520.8 346.4 534.7 348.8 526.6 359.9 533.7 373.3 532.6 374.4 530.4"/>
    <polygon class="cls-1" points="383.4 511.8 364 488.9 377.3 468.2 364.6 459.6 405.3 462 404.3 496.9 383.4 511.8"/>
    <polygon class="cls-20" points="364 488.9 369.2 462.7 377.3 468.2 364 488.9"/>
    <polygon class="cls-19" points="339.5 505.5 336.9 483.6 343.3 474.4 339.5 455.5 364.3 446.8 364.6 459.6 369.2 462.7 364 488.9 383.4 511.8 374.4 530.4 353 518.2 339.5 505.5"/>
    <polygon class="cls-8" points="296.3 487.8 301.7 475.2 322.8 458 325.8 419.4 344.5 401 363.3 398.7 364.3 446.8 339.5 455.5 343.3 474.4 336.9 483.6 339.5 505.5 321.6 512 304.7 514.5 300.3 523.4 289.2 503.5 296.3 487.8"/>
    <polygon class="cls-1" points="363.3 398.7 373.2 364.6 402 343.4 407.6 365 363.3 398.7"/>
    <polygon class="cls-19" points="349.4 400.4 370.7 373.2 363.3 398.7 349.4 400.4"/>
    <polygon class="cls-8" points="298.3 555.8 272.2 589.6 239.9 592.6 266.6 543 298.3 555.8"/>
    <polygon class="cls-19" points="322.5 556.5 299.3 573.5 298.3 555.8 272.2 589.6 290.1 587.9 307.6 582.8 322.5 556.5"/>
    <polygon class="cls-5" points="290.1 587.9 271.3 599.9 248.8 600.3 258.7 612 235.7 604.6 239.9 592.6 290.1 587.9"/>
    <polygon class="cls-19" points="258.7 612 335.7 613.7 307.7 602.1 271.3 599.9 248.8 600.3 258.7 612"/>
    <polygon class="cls-8" points="258.7 612 284.6 636 313.7 645.1 335.7 613.7 258.7 612"/>
    <polygon class="cls-1" points="313.7 645.1 328.7 645 363.9 653.5 366.3 641.6 387.4 634.6 365 630.2 366 616.1 345.9 618.3 335.7 613.7 313.7 645.1"/>
    <polygon class="cls-8" points="395.8 639.9 412.5 628.2 385.5 618.2 366 616.1 365 630.2 387.4 634.6 366.3 641.6 395.8 639.9"/>
    <polygon class="cls-8" points="290.1 587.9 320.3 586.3 349.8 598.3 335.7 613.7 307.7 602.1 271.3 599.9 290.1 587.9"/>
    <polygon class="cls-19" points="361.2 616.6 342.6 606.1 335.7 613.7 345.9 618.3 361.2 616.6"/>
    <polygon class="cls-1" points="349.8 598.3 348.2 587.7 321.9 578.2 290.1 587.9 320.3 586.3 349.8 598.3"/>
    <polygon class="cls-3" points="357.1 614.3 366.6 604.9 386.3 614.5 367 587.2 348.2 587.7 349.8 598.3 342.6 606.1 357.1 614.3"/>
    <polygon class="cls-19" points="386.3 614.5 385.5 618.2 366 616.1 361.2 616.6 357.1 614.3 366.6 604.9 386.3 614.5"/>
    <polygon class="cls-1" points="386.3 614.5 401.4 611.8 408.9 616.7 381.3 586.8 367 587.2 386.3 614.5"/>
    <polygon class="cls-19" points="434.8 633.3 425 622.4 449.9 621.4 434.8 633.3"/>
    <polygon class="cls-5" points="412.5 628.2 422.3 627.6 434.8 633.3 425 622.4 408.9 616.7 401.4 611.8 386.3 614.5 385.5 618.2 412.5 628.2"/>
    <polygon class="cls-19" points="395.8 639.9 416.2 634.1 422.3 627.6 412.5 628.2 395.8 639.9"/>
    <polygon class="cls-19" points="328.7 645 313.7 645.1 294.9 639.2 280.4 651.8 295.8 666.6 320 653.2 352 659.6 371.9 655 363.9 653.5 328.7 645"/>
    <polygon class="cls-3" points="371.9 655 390.8 650.1 395.8 639.9 366.3 641.6 363.9 653.5 371.9 655"/>
    <polygon class="cls-5" points="280.4 651.8 244.8 673 258.7 612 284.6 636 294.9 639.2 280.4 651.8"/>
    <polygon class="cls-19" points="235.7 604.6 214.8 553.9 253.5 542.9 256.7 517 272.8 507.2 266.6 543 239.9 592.6 235.7 604.6"/>
    <polygon class="cls-20" points="378.6 653.3 357 675.4 310.4 673.2 318.8 707.8 338.3 739.9 330 763 358.1 779.7 391.1 775.1 421.5 732.9 420.1 707.7 446 659.8 443.7 645.7 434.8 633.3 422.3 627.6 416.2 634.1 395.8 639.9 390.8 650.1 378.6 653.3"/>
    <polygon class="cls-3" points="358.1 779.7 294.6 760.8 296.5 743.4 280.1 722.1 286.4 698.2 273.9 678.8 280.4 651.8 295.8 666.6 320 653.2 352 659.6 371.9 655 378.6 653.3 357 675.4 310.4 673.2 318.8 707.8 338.3 739.9 330 763 358.1 779.7"/>
    <polygon class="cls-1" points="294.6 760.8 283.2 740.1 264.3 733.2 261.6 719.1 241.2 715 244.8 673 280.4 651.8 273.9 678.8 286.4 698.2 280.1 722.1 296.5 743.4 294.6 760.8"/>
    <polygon class="cls-14" points="235.7 604.6 213.9 684.1 184.9 648 183.8 598 200.7 572.1 235.7 604.6"/>
    <polygon class="cls-19" points="213.9 684.1 250.2 649.2 258.7 612 235.7 604.6 213.9 684.1"/>
    <polygon class="cls-8" points="358.1 779.7 313.4 782.5 276.1 773.5 232.2 751.2 224.6 707.4 213.9 684.1 250.2 649.2 244.8 673 241.2 715 261.6 719.1 264.3 733.2 283.2 740.1 294.6 760.8 358.1 779.7"/>
    <polygon class="cls-19" points="224.6 707.4 186.2 680.5 184.9 648 213.9 684.1 224.6 707.4"/>
    <polygon class="cls-1" points="232.2 751.2 187.8 712.1 186.2 680.5 224.6 707.4 232.2 751.2"/>
    <polygon class="cls-5" points="187.8 712.1 170 693.8 161.5 633.3 183.8 598 184.9 648 186.2 680.5 187.8 712.1"/>
    <polygon class="cls-19" points="161.5 633.3 152.8 588.2 158.4 487.7 179.3 555 183.8 598 161.5 633.3"/>
    <polygon class="cls-5" points="200.7 572.1 214.8 553.9 235.7 604.6 200.7 572.1"/>
    <polygon class="cls-1" points="214.8 553.9 158.4 487.7 179.3 555 183.8 598 200.7 572.1 214.8 553.9"/>
    <polygon class="cls-19" points="272.8 507.2 296.8 471 299.6 451.1 325.8 419.4 322.8 458 301.7 475.2 296.3 487.8 272.8 507.2"/>
    <polygon class="cls-8" points="189.1 381.8 228.9 411.1 272.1 429.6 323.5 401.2 311.7 436.4 299.6 451.1 296.8 471 272.8 507.2 256.7 517 253.5 542.9 214.8 553.9 158.4 487.7 231.6 449.1 185 410.1 189.1 381.8"/>
    <polygon class="cls-19" points="158.4 487.7 182.3 434 185 410.1 231.6 449.1 158.4 487.7"/>
    <polygon class="cls-19" points="189.1 381.8 228.4 392.8 254.9 409.4 292 395 323.5 401.2 272.1 429.6 228.9 411.1 189.1 381.8"/>
    <polygon class="cls-14" points="323.5 401.2 337.5 395.9 344.5 401 325.8 419.4 311.7 436.4 323.5 401.2"/>
    <polygon class="cls-5" points="292 395 268 382.2 246.4 381.9 232.6 370.2 230.9 386.2 189.1 381.8 228.4 392.8 254.9 409.4 292 395"/>
    <polygon class="cls-8" points="268 382.2 310 385.5 332 382.2 325.6 366.5 354.2 365.4 360 386.8 349.4 400.4 344.5 401 337.5 395.9 323.5 401.2 292 395 268 382.2"/>
    <polygon class="cls-3" points="391.1 775.1 434.1 729.5 429.8 711.5 461.4 662.8 446 659.8 420.1 707.7 421.5 732.9 391.1 775.1"/>
    <polygon class="cls-5" points="461.4 662.8 449.9 621.4 443.7 645.7 446 659.8 461.4 662.8"/>
    <polygon class="cls-19" points="459.3 621 461.4 662.8 449.9 621.4 459.3 621"/>
    <polygon class="cls-19" points="391.1 775.1 439.9 732.7 434.1 729.5 391.1 775.1"/>
    <polygon class="cls-8" points="391.1 775.1 464.8 718.4 494.3 683.7 532.3 633.1 563.2 583.1 561.7 553.8 527.5 620.3 477.5 688.4 439.9 732.7 391.1 775.1"/>
    <polygon class="cls-3" points="391.1 775.1 421.2 766.7 476 727.2 513.9 686.5 559.6 601 563.2 583.1 532.3 633.1 494.3 683.7 464.8 718.4 391.1 775.1"/>
    <polygon class="cls-20" points="421.2 766.7 474.1 735.5 518.7 692 544.5 647.6 559.6 601 513.9 686.5 476 727.2 421.2 766.7"/>
    <polygon class="cls-1" points="461.4 662.8 514.9 616.1 540.1 595.8 527.5 620.3 477.5 688.4 439.9 732.7 434.1 729.5 429.8 711.5 461.4 662.8"/>
    <polygon class="cls-8" points="459.3 621 508.5 598.2 545.2 554.2 540.1 595.8 514.9 616.1 461.4 662.8 459.3 621"/>
    <polygon class="cls-8" points="453.4 573.6 435.1 525.6 427.8 536.4 413.4 535 453.4 573.6"/>
    <polygon class="cls-1" points="532.5 569.3 476.6 526.8 459.9 532.4 453.4 573.6 459.3 621 508.5 598.2 532.5 569.3"/>
    <polygon class="cls-3" points="419.4 484.1 447.6 464.3 490.7 485.5 550.3 487.5 545.2 554.2 532.5 569.3 476.6 526.8 459.9 532.4 453.4 573.6 435.1 525.6 434.6 506.2 419.4 484.1"/>
    <polygon class="cls-5" points="231.6 449.1 200.9 537.5 158.4 487.7 231.6 449.1"/>
    <polygon class="cls-19" points="561.7 553.8 550.3 487.5 540.1 595.8 561.7 553.8"/>
    <polygon class="cls-1" points="550.3 487.5 549 452.5 490.1 467.6 433.4 433.7 419 391.5 421.4 441.2 419.4 484.1 447.6 464.3 490.7 485.5 550.3 487.5"/>
    <polygon class="cls-8" points="549 452.5 532.5 442.5 483.5 444.1 419 391.5 433.4 433.7 490.1 467.6 549 452.5"/>
    <polygon class="cls-5" points="532.5 442.5 501.2 423.4 477.1 421.2 428.8 399.5 483.5 444.1 532.5 442.5"/>
    <polygon class="cls-3" points="419 391.5 407.6 365 404.5 405.2 421.4 441.2 419 391.5"/>
    <polygon class="cls-19" points="549 452.5 540.7 415.6 501.2 423.4 532.5 442.5 549 452.5"/>
    <polygon class="cls-18" points="428.8 399.5 465 376.3 462.1 391.3 476.1 410.4 477.1 421.2 428.8 399.5"/>
    <polygon class="cls-15" points="476.1 410.4 501.3 407.8 512.3 383.3 535.3 398.9 540.7 415.6 501.2 423.4 477.1 421.2 476.1 410.4"/>
    <polygon class="cls-13" points="465 376.3 486 376.1 512.3 383.3 501.3 407.8 476.1 410.4 462.1 391.3 465 376.3"/>
    <polygon class="cls-7" points="476.1 410.4 478.2 399.9 469.4 390.9 472.4 376.2 465 376.3 462.1 391.3 476.1 410.4"/>
    <polygon class="cls-20" points="419 391.5 420.8 366 442.8 349.1 402 343.4 407.6 365 419 391.5"/>
    <path class="cls-19" d="M170,693.8l-2.9,48.2,66,66.1,43-34.6-43.8-22.3c-14.8-13-29.6-26-44.4-39-5.9-6.1-11.9-12.2-17.8-18.3Z"/>
    <polygon class="cls-5" points="233.1 808.1 269.8 836.8 313.4 782.5 276.1 773.5 233.1 808.1"/>
    <polygon class="cls-19" points="269.8 836.8 315.1 852.2 374.5 859 408.6 848.8 358.1 779.7 313.4 782.5 269.8 836.8"/>
    <polygon class="cls-8" points="408.6 848.8 454.3 808.7 491.2 751.4 423.7 814.8 392.7 827.1 408.6 848.8"/>
    <polygon class="cls-5" points="491.2 751.4 494.1 716 474.1 735.5 421.2 766.7 391.1 775.1 358.1 779.7 392.7 827.1 423.7 814.8 491.2 751.4"/>
    <polygon class="cls-5" points="167.1 741.9 190.6 821.1 233.1 808.1 167.1 741.9"/>
    <polygon class="cls-19" points="190.6 821.1 269.8 836.8 233.1 808.1 190.6 821.1"/>
    <polygon class="cls-19" points="408.6 848.8 463.5 833.2 454.3 808.7 408.6 848.8"/>
    <polygon class="cls-14" points="463.5 833.2 433.8 883.7 490.6 846.4 463.5 833.2"/>
    <polygon class="cls-5" points="491.2 751.4 490.6 846.4 463.5 833.2 454.3 808.7 491.2 751.4"/>
    <polygon class="cls-19" points="459.8 866.6 412.1 940.2 331.1 992.8 369.3 987.5 413.2 956.9 490.6 846.4 459.8 866.6"/>
    <polygon class="cls-5" points="315.1 852.2 353.6 879 331.1 992.8 412.1 940.2 459.8 866.6 433.8 883.7 463.5 833.2 408.6 848.8 374.5 859 315.1 852.2"/>
    <polygon class="cls-5" points="269.8 836.8 292.5 865.9 315.1 852.2 269.8 836.8"/>
    <polygon class="cls-19" points="315.1 852.2 331.1 992.8 353.6 879 315.1 852.2"/>
    <polygon class="cls-1" points="331.1 992.8 298.1 986.3 253 952 228.7 913.4 261.1 880.6 229 828.7 269.8 836.8 292.5 865.9 315.1 852.2 331.1 992.8"/>
    <polygon class="cls-8" points="190.6 821.1 228.7 913.4 261.1 880.6 229 828.7 190.6 821.1"/>
    <polygon class="cls-14" points="232.6 370.2 219.6 354.1 236.2 352.1 232.6 370.2"/>
    <polygon class="cls-18" points="236.2 352.1 248.4 349 250.5 365.8 268 382.2 246.4 381.9 232.6 370.2 236.2 352.1"/>
    <polygon class="cls-15" points="264.1 378.5 282.5 377 295.2 367.1 292.9 353.3 322.2 383.7 310 385.5 268 382.2 264.1 378.5"/>
    <polygon class="cls-13" points="292.9 353.3 271.4 341.7 248.4 349 250.5 365.8 264.1 378.5 282.5 377 295.2 367.1 292.9 353.3"/>
    <polygon class="cls-8" points="219.6 354.1 238.4 341 271.4 341.7 248.4 349 236.2 352.1 219.6 354.1"/>
    <polygon class="cls-19" points="325.6 366.5 289.8 340.1 271.4 341.7 292.9 353.3 322.2 383.7 332 382.2 325.6 366.5"/>
    <polygon class="cls-5" points="289.8 340.1 248.8 331.2 238.4 341 271.4 341.7 289.8 340.1"/>
    <polygon class="cls-5" points="373.2 364.6 383.8 339.8 326 302.8 329.5 322.4 296.1 320.1 309.2 339 289.8 340.1 325.6 366.5 354.2 365.4 360 386.8 370.7 373.2 373.2 364.6"/>
    <polygon class="cls-3" points="442.8 349.1 450.4 327.4 484.2 324.4 483.6 307.4 431.5 300.1 430 275.8 386.3 268.8 401.7 330.8 383.8 339.8 373.2 364.6 402 343.4 442.8 349.1"/>
    <polygon class="cls-20" points="484.2 324.4 542.9 329.7 511 238.4 423 227.7 430 275.8 431.5 300.1 483.6 307.4 484.2 324.4"/>
    <polygon class="cls-3" points="511 238.4 486.7 173.4 463.1 168.7 476.8 234.2 511 238.4"/>
    <polygon class="cls-20" points="486.7 173.4 443.1 126 439.6 169.1 463.1 168.7 486.7 173.4"/>
    <polygon class="cls-3" points="443.1 126 367.6 113.2 363.9 132.3 439.6 169.1 443.1 126"/>
    <polygon class="cls-1" points="363.9 132.3 386.3 268.8 430 275.8 423 227.7 476.8 234.2 463.1 168.7 439.6 169.1 363.9 132.3"/>
    <polygon class="cls-1" points="326 302.8 349.4 270.3 395.9 306.9 401.7 330.8 383.8 339.8 326 302.8"/>
    <polygon class="cls-20" points="349.4 270.3 373.3 190 386.3 268.8 395.9 306.9 349.4 270.3"/>
    <polygon class="cls-14" points="363.9 132.3 326.8 234.7 226.4 269.7 263.2 174.6 330.3 106.5 367.6 113.2 363.9 132.3"/>
    <polygon class="cls-8" points="226.4 269.7 297.7 278.3 326 302.8 349.4 270.3 373.3 190 363.9 132.3 326.8 234.7 226.4 269.7"/>
    <polygon class="cls-19" points="226.4 269.7 199.4 316.4 239.2 296 282.4 304.6 296.1 320.1 329.5 322.4 326 302.8 297.7 278.3 226.4 269.7"/>
    <polygon class="cls-8" points="239.2 296 213.8 333.1 248.8 331.2 289.8 340.1 309.2 339 296.1 320.1 282.4 304.6 239.2 296"/>
    <polygon class="cls-19" points="213.8 333.1 199.4 316.4 189.1 381.8 230.9 386.2 232.6 370.2 219.6 354.1 238.4 341 248.8 331.2 213.8 333.1"/>
    <polygon class="cls-2" points="363.9 132.3 249.4 210.1 263.2 174.6 330.3 106.5 367.6 113.2 363.9 132.3"/>
    <polygon class="cls-1" points="542.9 329.7 544.6 348.5 445.6 341.1 450.4 327.4 484.2 324.4 542.9 329.7"/>
    <polygon class="cls-19" points="540.7 415.6 548.7 390.5 512.3 383.3 535.3 398.9 540.7 415.6"/>
    <polygon class="cls-5" points="419 391.5 465 376.3 428.8 399.5 419 391.5"/>
    <polygon class="cls-8" points="465 376.3 489.1 360.6 478.1 343.6 445.6 341.1 442.8 349.1 420.8 366 419 391.5 465 376.3"/>
    <polygon class="cls-3" points="489.1 360.6 515.7 365.9 550 368.5 544.6 348.5 478.1 343.6 489.1 360.6"/>
    <polygon class="cls-5" points="548.7 390.5 550 368.5 515.7 365.9 489.1 360.6 465 376.3 486 376.1 512.3 383.3 548.7 390.5"/>
    <polygon class="cls-7" points="279.6 346.1 280.8 356.9 292.9 353.3 279.6 346.1"/>
    <polygon class="cls-7" points="492.1 377.7 493.2 388.3 512.3 383.3 492.1 377.7"/>
    <polygon class="cls-4" points="443.1 126 359.9 78.8 330.3 106.5 443.1 126"/>
    <polygon class="cls-2" points="443.1 126 421.4 43.9 359.9 78.8 443.1 126"/>
    <polygon class="cls-4" points="421.4 43.9 384.6 0 344.5 17.8 330.3 63.6 359.9 78.8 421.4 43.9"/>
    <polygon class="cls-17" points="384.6 0 340.5 0 344.5 17.8 384.6 0"/>
    <polygon class="cls-11" points="344.5 17.8 264.5 64.8 241 132.3 330.3 63.6 344.5 17.8"/>
    <polygon class="cls-9" points="340.5 0 231.6 64.8 152.8 165.3 241 132.3 264.5 64.8 344.5 17.8 340.5 0"/>
    <polygon class="cls-17" points="241 132.3 330.3 106.5 359.9 78.8 330.3 63.6 241 132.3"/>
    <polygon class="cls-11" points="263.2 174.6 227.9 207.3 241 132.3 330.3 106.5 263.2 174.6"/>
    <polygon class="cls-17" points="227.9 207.3 199.4 316.4 226.4 269.7 249.4 210.1 263.2 174.6 227.9 207.3"/>
    <polygon class="cls-11" points="152.8 165.3 99.7 370.2 69.2 586.3 120.1 586.3 125.8 367.5 191.8 150.7 152.8 165.3"/>
    <polygon class="cls-2" points="227.9 207.3 161.5 364.6 158.4 487.7 182.3 434 185 410.1 189.1 381.8 199.4 316.4 227.9 207.3"/>
    <polygon class="cls-4" points="120.1 586.3 141.1 633.8 152.8 588.2 158.4 487.7 161.5 364.6 227.9 207.3 241 132.3 191.8 150.7 125.8 367.5 120.1 586.3"/>
    <polygon class="cls-11" points="141.1 633.8 152.8 819.4 172.2 848.8 190.6 821.1 167.1 741.9 170 693.8 161.5 633.3 152.8 588.2 141.1 633.8"/>
    <polygon class="cls-17" points="141.1 633.8 113.3 852.2 95.4 586.3 120.1 586.3 141.1 633.8"/>
    <polygon class="cls-11" points="103.9 712.1 73.3 891.7 113.3 852.2 103.9 712.1"/>
    <polygon class="cls-17" points="152.8 819.4 167.1 971.6 172.2 848.8 152.8 819.4"/>
    <polygon class="cls-2" points="113.3 852.2 104.6 1063.8 118.2 1063.8 126.6 961.4 132.8 1063.8 172.2 1063.8 167.1 971.6 152.8 819.4 141.1 633.8 113.3 852.2"/>
    <polygon class="cls-12" points="118.2 1063.8 132.8 1063.8 126.6 961.4 118.2 1063.8"/>
    <polygon class="cls-9" points="172.2 1063.8 190.6 1063.8 200.7 950.6 190.6 821.1 172.2 848.8 167.1 971.6 172.2 1063.8"/>
    <polygon class="cls-9" points="69.2 586.3 27.2 841.9 54.9 865.9 82.1 840.2 103.9 712.1 95.4 586.3 69.2 586.3"/>
    <polygon class="cls-6" points="27.2 841.9 0 851.3 0 961.4 27.2 841.9"/>
    <polygon class="cls-10" points="0 961.4 54.9 865.9 27.2 841.9 0 961.4"/>
    <polygon class="cls-16" points="73.3 891.7 79.5 992.8 62.5 997.3 50.8 933.7 0 961.4 54.9 865.9 82.1 840.2 73.3 891.7"/>
    <polygon class="cls-6" points="62.5 997.3 44.1 1063.8 0 1063.8 0 961.4 50.8 933.7 62.5 997.3"/>
    <polygon class="cls-12" points="44.1 1063.8 104.6 1063.8 113.3 852.2 73.3 891.7 79.5 992.8 62.5 997.3 44.1 1063.8"/>
    <polygon class="cls-6" points="198.4 976.2 279.9 1063.8 306.6 1063.8 326.3 1030.1 265.1 1012.6 197.2 906.5 200.7 950.6 198.4 976.2"/>
    <polygon class="cls-12" points="279.9 1063.8 190.6 1063.8 198.4 976.2 279.9 1063.8"/>
    <polygon class="cls-10" points="326.3 1030.1 331.1 992.8 298.1 986.3 253 952 228.7 913.4 190.6 821.1 197.2 906.5 265.1 1012.6 326.3 1030.1"/>
    <polygon class="cls-16" points="306.6 1063.8 391.1 1063.8 457.4 893.7 413.2 956.9 369.3 987.5 331.1 992.8 326.3 1030.1 306.6 1063.8"/>
    <polygon class="cls-12" points="457.4 893.7 503.2 881.4 516.9 798.9 490.6 846.4 457.4 893.7"/>
    <polygon class="cls-19" points="516.9 798.9 518.7 692 494.1 716 491.2 751.4 490.6 846.4 516.9 798.9"/>
    <polygon class="cls-10" points="503.2 881.4 469.2 985.1 449.6 969.8 391.1 1063.8 457.4 893.7 503.2 881.4"/>
    <polygon class="cls-12" points="469.2 985.1 442 1063.8 391.1 1063.8 449.6 969.8 469.2 985.1"/>
    <polygon class="cls-6" points="442 1063.8 491.2 1063.8 528.1 964.8 510 840.2 503.2 881.4 469.2 985.1 442 1063.8"/>
    <polygon class="cls-10" points="491.2 1063.8 538.5 1063.8 528.1 964.8 491.2 1063.8"/>
    <polygon class="cls-14" points="421.4 43.9 490.3 43.9 481.9 107.7 421.4 43.9"/>
    <polygon class="cls-4" points="443.1 126 481.9 107.7 421.4 43.9 443.1 126"/>
    <polygon class="cls-17" points="384.6 0 423.3 3.2 421.4 43.9 384.6 0"/>
    <polygon class="cls-11" points="421.4 43.9 481.9 20.7 423.3 3.2 421.4 43.9"/>
    <polygon class="cls-9" points="490.3 43.9 481.9 20.7 421.4 43.9 490.3 43.9"/>
    <polygon class="cls-4" points="481.9 20.7 553.2 66.2 595.7 123.9 518.7 141.2 481.9 107.7 490.3 43.9 481.9 20.7"/>
    <polygon class="cls-17" points="518.7 141.2 590.6 165.3 595.7 123.9 518.7 141.2"/>
    <polygon class="cls-4" points="518.7 141.2 544.6 215.6 586 215.6 590.6 165.3 518.7 141.2"/>
    <polygon class="cls-9" points="586 215.6 603.7 284.6 629.8 261 595.7 123.9 590.6 165.3 586 215.6"/>
    <polygon class="cls-11" points="544.6 215.6 603.7 284.6 586 215.6 544.6 215.6"/>
    <polygon class="cls-2" points="544.6 215.6 511 238.4 486.7 173.4 443.1 126 481.9 107.7 518.7 141.2 544.6 215.6"/>
    <polygon class="cls-11" points="629.8 261 645.7 378.5 701.7 348.5 649.9 240.4 595.7 123.9 629.8 261"/>
    <polygon class="cls-4" points="603.7 284.6 629.8 412.5 652.5 403.1 645.7 378.5 629.8 261 603.7 284.6"/>
    <polygon class="cls-17" points="544.6 215.6 595.7 327.1 603.7 284.6 544.6 215.6"/>
    <polygon class="cls-4" points="595.7 327.1 550.3 487.5 549 452.5 540.7 415.6 548.7 390.5 550 368.5 544.6 348.5 542.9 329.7 511 238.4 544.6 215.6 595.7 327.1"/>
    <polygon class="cls-11" points="588.8 351.6 603.7 450.8 629.8 412.5 603.7 284.6 595.7 327.1 588.8 351.6"/>
    <polygon class="cls-2" points="567.6 426.3 582.6 561 563.2 583.1 561.7 553.8 550.3 487.5 567.6 426.3"/>
    <polygon class="cls-17" points="701.7 348.5 740.8 464.3 786.4 545 786.4 609.9 723.6 504.7 676.7 361.9 701.7 348.5"/>
    <polygon class="cls-17" points="652.5 403.1 671.4 564.8 689.1 535 676.7 361.9 645.7 378.5 652.5 403.1"/>
    <polygon class="cls-9" points="786.4 609.9 786.4 628.9 757.2 561 786.4 609.9"/>
    <polygon class="cls-2" points="723.6 504.7 757.2 594.2 689.1 535 676.7 361.9 723.6 504.7"/>
    <polygon class="cls-4" points="786.4 628.9 786.4 661.4 726.9 567.8 757.2 594.2 723.6 504.7 757.2 561 786.4 628.9"/>
    <polygon class="cls-2" points="629.8 412.5 650.4 577 671.4 578.2 671.4 564.8 652.5 403.1 629.8 412.5"/>
    <polygon class="cls-17" points="689.1 535 712.4 622.6 786.4 692.7 786.4 661.4 726.9 567.8 689.1 535"/>
    <polygon class="cls-11" points="786.4 692.7 786.4 722.8 703.6 642.5 671.4 578.2 671.4 564.8 689.1 535 712.4 622.6 786.4 692.7"/>
    <polygon class="cls-4" points="603.7 450.8 623.1 588.2 650.4 577 629.8 412.5 603.7 450.8"/>
    <polygon class="cls-17" points="786.4 722.8 786.4 742.9 716.9 713.7 703.6 642.5 786.4 722.8"/>
    <polygon class="cls-4" points="650.4 577 671.4 805.1 713.3 805.1 716.9 713.7 703.6 642.5 671.4 578.2 650.4 577"/>
    <polygon class="cls-2" points="786.4 742.9 786.4 808.1 715.1 759 716.9 713.7 786.4 742.9"/>
    <polygon class="cls-9" points="613 516.9 582.6 803.2 563.2 583.1 582.6 561 567.6 426.3 588.8 351.6 603.7 450.8 613 516.9"/>
    <polygon class="cls-11" points="582.6 803.2 528.1 964.8 510 840.2 516.9 798.9 518.7 692 544.5 647.6 559.6 601 563.2 583.1 582.6 803.2"/>
    <polygon class="cls-11" points="623.1 588.2 629.8 827.1 671.4 805.1 650.4 577 623.1 588.2"/>
    <polygon class="cls-9" points="629.8 827.1 635.7 908.8 604.4 985.1 640.9 1002 663.1 904.5 671.4 805.1 629.8 827.1"/>
    <polygon class="cls-11" points="604.4 985.1 532.5 1006.8 538.5 1063.8 613 1063.8 640.9 1002 604.4 985.1"/>
    <polygon class="cls-17" points="613 516.9 582.6 803.2 528.1 964.8 532.5 1006.8 559.6 998.6 628.5 782.5 623.1 588.2 613 516.9"/>
    <polygon class="cls-9" points="604.4 985.1 594.7 888.6 559.6 998.6 604.4 985.1"/>
    <polygon class="cls-4" points="628.5 782.5 594.7 888.6 604.4 985.1 635.7 908.8 629.8 827.1 628.5 782.5"/>
    <polygon class="cls-9" points="613 1063.8 695.3 1063.8 640.9 1002 613 1063.8"/>
    <polygon class="cls-11" points="695.3 1063.8 650.4 960.5 640.9 1002 695.3 1063.8"/>
    <polygon class="cls-17" points="661.1 985.1 707.4 897.6 690.8 861 663.1 904.5 650.4 960.5 661.1 985.1"/>
    <polygon class="cls-9" points="676.7 1021 719.4 946.8 707.4 897.6 661.1 985.1 676.7 1021"/>
    <polygon class="cls-17" points="685.7 1041.7 737.9 991 719.4 946.8 676.7 1021 685.7 1041.7"/>
    <polygon class="cls-2" points="737.9 991 775.6 1063.8 695.3 1063.8 685.7 1041.7 737.9 991"/>
    <polygon class="cls-11" points="690.8 861 713.3 805.1 671.4 805.1 663.1 904.5 690.8 861"/>
    <polygon class="cls-4" points="713.3 805.1 707.4 897.6 690.8 861 713.3 805.1"/>
    <polygon class="cls-17" points="786.4 808.1 707.9 899.6 713.3 805.1 715.1 759 786.4 808.1"/>
    <polygon class="cls-6" points="719.4 946.8 786.4 808.1 707.9 899.6 719.4 946.8"/>
    <polygon class="cls-16" points="775.6 1063.8 786.4 1063.8 786.4 1003.7 763.2 1039.9 775.6 1063.8"/>
    <polygon class="cls-12" points="786.4 1003.7 786.4 977.2 753.4 1021 763.2 1039.9 786.4 1003.7"/>
    <polygon class="cls-6" points="786.4 977.2 786.4 952 753.4 1021 786.4 977.2"/>
    <polygon class="cls-10" points="786.4 952 786.4 911.6 737.9 991 753.4 1021 786.4 952"/>
    <polygon class="cls-6" points="786.4 911.6 786.4 886.3 752.3 967.5 786.4 911.6"/>
    <polygon class="cls-16" points="786.4 886.3 786.4 808.1 737.9 991 752.3 967.5 786.4 886.3"/>
    <polygon class="cls-12" points="719.4 946.8 737.9 991 786.4 808.1 719.4 946.8"/>
    <polygon class="cls-17" points="421.4 43.9 490.3 43.9 481.9 107.7 421.4 43.9"/>
    <polygon class="cls-8" points="463.5 833.2 433.8 883.7 490.6 846.4 463.5 833.2"/>
    <polygon class="cls-20" points="368.1 543.3 383.4 511.8 399.8 525.4 368.1 543.3"/>
    <polygon class="cls-8" points="200.7 572.1 183.8 598 184.9 648 213.9 684.1 235.7 604.6 200.7 572.1"/>
    <polygon class="cls-5" points="226.4 269.7 249.4 210.1 363.9 132.3 326.8 234.7 226.4 269.7"/>
    <polygon class="cls-5" points="199.4 316.4 213.8 333.1 239.2 296 199.4 316.4"/>
    <polygon class="cls-8" points="449.9 621.4 434.8 633.3 443.7 645.7 449.9 621.4"/>
    <polygon class="cls-19" points="324.4 530.4 322.5 556.5 352.8 545.5 324.4 530.4"/>
    <polygon class="cls-1" points="352.8 545.5 368.1 543.3 362.5 571.9 352.8 545.5"/>
    <polygon class="cls-19" points="385 533.8 396.8 540.6 413.4 535 414.7 528.4 399.8 525.4 385 533.8"/>
    <polygon class="cls-5" points="323.5 401.2 337.5 395.9 344.5 401 311.7 436.4 323.5 401.2"/>
    <polygon class="cls-15" points="219.6 354.1 236.2 352.1 232.6 370.2 219.6 354.1"/>
  </g>
</svg>